/*
  Play melody
*/

#include "pitches.h"

int notes[] = {NOTE_B4,NOTE_A4,NOTE_B4,NOTE_B4,NOTE_F4,NOTE_D4,NOTE_B3,NOTE_F4,NOTE_E4,NOTE_F4,NOTE_F4,NOTE_D4,NOTE_B3,NOTE_F3,NOTE_B3,NOTE_A3,NOTE_B3,NOTE_B3,NOTE_F3,NOTE_D4,NOTE_D4,NOTE_B3,NOTE_F4,NOTE_F4,NOTE_D4,NOTE_B4,NOTE_B4,NOTE_F4,NOTE_D5,NOTE_A4,NOTE_B4,NOTE_F4,NOTE_D4,NOTE_A3,NOTE_B3,NOTE_F3,NOTE_D3,NOTE_F3,NOTE_B3,NOTE_A3,NOTE_D4,NOTE_C4,NOTE_F4,NOTE_E4,NOTE_D4,NOTE_C4,NOTE_B3,NOTE_F4,NOTE_B4,NOTE_A4,NOTE_D5,NOTE_C5,NOTE_F5,NOTE_E5,NOTE_D5,NOTE_C5,NOTE_B4,NOTE_A4,NOTE_G4,NOTE_B4,NOTE_E5,NOTE_D5,NOTE_C5,NOTE_B4,NOTE_A4,NOTE_G4,NOTE_F4,NOTE_E4,NOTE_F4,NOTE_F4,NOTE_C4,NOTE_A3,NOTE_F3,NOTE_C4,NOTE_B3,NOTE_C4,NOTE_C4,NOTE_A3,NOTE_F3,NOTE_C3,NOTE_F3,NOTE_E3,NOTE_F3,NOTE_F3,NOTE_C3,NOTE_A3,NOTE_A3,NOTE_F3,NOTE_C4,NOTE_C4,NOTE_A3,NOTE_F4,NOTE_F4,NOTE_C4,NOTE_A4,NOTE_F4,NOTE_C5,NOTE_A4,NOTE_F4,NOTE_C4,NOTE_A4,NOTE_F4,NOTE_C4,NOTE_A3,NOTE_F4,NOTE_C4,NOTE_A3,NOTE_F3,NOTE_B3,NOTE_A3,NOTE_B3,NOTE_B3,NOTE_F3,NOTE_D4,NOTE_D4,NOTE_B3,NOTE_F4,NOTE_F4,NOTE_D4,NOTE_B4,NOTE_B4,NOTE_A4,NOTE_G4,NOTE_F4,NOTE_E4,NOTE_D5,NOTE_C5,NOTE_B4,NOTE_A4,NOTE_C5,NOTE_E5,NOTE_E5,NOTE_A4,NOTE_C5,NOTE_F4,NOTE_A4,NOTE_C4,NOTE_E4,NOTE_E4,NOTE_A3,NOTE_C4,NOTE_F3,NOTE_A3,NOTE_C3,NOTE_E3,NOTE_E3,NOTE_F3,NOTE_A3,NOTE_F3,NOTE_C4,NOTE_A3,NOTE_F4,NOTE_C4,NOTE_A4,NOTE_F4,NOTE_C5,NOTE_E4,NOTE_D4,NOTE_F4,NOTE_B4,NOTE_B4,NOTE_D5,NOTE_F5,NOTE_B4,NOTE_D5,NOTE_F4,NOTE_B4,NOTE_B4,NOTE_D4,NOTE_F4,NOTE_B3,NOTE_D4,NOTE_F3,NOTE_B3,NOTE_B3,NOTE_F3,NOTE_D3,NOTE_F3,NOTE_B3,NOTE_F3,NOTE_D4,NOTE_B3,NOTE_F4,NOTE_D4,NOTE_B4,NOTE_G4,NOTE_E4,NOTE_G4,NOTE_B4,NOTE_B4,NOTE_E4,NOTE_G4,NOTE_C4,NOTE_E4,NOTE_G3,NOTE_B3,NOTE_B3,NOTE_E3,NOTE_G3,NOTE_C3,NOTE_E3,NOTE_G3,NOTE_B3,NOTE_B3,NOTE_G3,NOTE_E4,NOTE_E4,NOTE_C4,NOTE_G4,NOTE_G4,NOTE_E4,NOTE_B4,NOTE_B4,NOTE_G4,NOTE_A4,NOTE_F4,NOTE_C5,NOTE_A4,NOTE_E5,NOTE_C5,NOTE_F5,NOTE_A4,NOTE_B4,NOTE_E4,NOTE_D4,NOTE_B4,NOTE_C4,NOTE_A4,NOTE_B4,NOTE_F4,NOTE_B4,NOTE_B4,NOTE_A4,NOTE_B4,NOTE_B4,NOTE_A4,NOTE_B4,NOTE_F4,NOTE_D4,NOTE_E4,NOTE_F4,NOTE_D4,NOTE_B3,NOTE_C4,NOTE_D4,NOTE_F4,NOTE_D4,NOTE_C4,NOTE_D4,NOTE_F4,NOTE_D4,NOTE_C4,NOTE_D4,NOTE_B3,NOTE_C4,NOTE_D4,NOTE_D4,NOTE_E4,NOTE_F4,NOTE_D5,NOTE_B4,NOTE_A4,NOTE_B4,NOTE_D5,NOTE_B4,NOTE_A4,NOTE_B4,NOTE_F4,NOTE_G4,NOTE_A4,NOTE_B4,NOTE_A4,NOTE_B4,NOTE_C5,NOTE_D5,NOTE_F5,NOTE_D5,NOTE_C5,NOTE_D5,NOTE_F5,NOTE_D5,NOTE_C5,NOTE_D5,NOTE_B4,NOTE_F5,NOTE_G5,NOTE_F5,NOTE_E5,NOTE_F5,NOTE_G5,NOTE_F5,NOTE_E5,NOTE_D5,NOTE_C5,NOTE_B4,NOTE_A4,NOTE_B4,NOTE_C5,NOTE_E5,NOTE_D5,NOTE_E5,NOTE_F5,NOTE_E5,NOTE_D5,NOTE_E5,NOTE_F5,NOTE_E5,NOTE_D5,NOTE_C5,NOTE_B4,NOTE_A4,NOTE_G4,NOTE_A4,NOTE_B4,NOTE_D5,NOTE_C5,NOTE_D5,NOTE_E5,NOTE_E5,NOTE_C5,NOTE_B4,NOTE_C5,NOTE_D5,NOTE_D5,NOTE_B4,NOTE_A4,NOTE_B4,NOTE_C5,NOTE_D5,NOTE_A4,NOTE_G4,NOTE_F4,NOTE_F4,NOTE_E4,NOTE_F4,NOTE_F4,NOTE_C4,NOTE_A3,NOTE_F3,NOTE_C4,NOTE_B3,NOTE_C4,NOTE_C4,NOTE_A3,NOTE_F3,NOTE_C3,NOTE_F3,NOTE_E3,NOTE_F3,NOTE_F3,NOTE_C3,NOTE_A3,NOTE_A3,NOTE_F3,NOTE_C4,NOTE_C4,NOTE_A3,NOTE_E4,NOTE_E4,NOTE_C4,NOTE_D4,NOTE_B3,NOTE_F4,NOTE_D4,NOTE_A4,NOTE_A4,NOTE_F4,NOTE_G4,NOTE_E4,NOTE_B4,NOTE_G4,NOTE_D5,NOTE_D5,NOTE_C5,NOTE_D5,NOTE_B4,NOTE_F4,NOTE_B4,NOTE_C5,NOTE_A4,NOTE_B4,NOTE_B4,NOTE_A4,NOTE_B4,NOTE_B4,NOTE_A4,NOTE_B4,NOTE_F4,NOTE_D4,NOTE_E4,NOTE_F4,NOTE_D4,NOTE_B3,NOTE_C4,NOTE_D4,NOTE_F4,NOTE_D4,NOTE_C4,NOTE_D4,NOTE_F4,NOTE_D4,NOTE_C4,NOTE_D4,NOTE_B3,NOTE_C4,NOTE_D4,NOTE_D4,NOTE_E4,NOTE_F4,NOTE_D5,NOTE_B4,NOTE_A4,NOTE_B4,NOTE_D5,NOTE_B4,NOTE_A4,NOTE_G4,NOTE_G4,NOTE_C5,NOTE_E5,NOTE_C5,NOTE_B4,NOTE_C5,NOTE_E5,NOTE_C5,NOTE_B4,NOTE_A4,NOTE_C5,NOTE_F5,NOTE_F5,NOTE_E5,NOTE_F5,NOTE_F5,NOTE_E5,NOTE_F5,NOTE_C5,NOTE_A4,NOTE_B4,NOTE_C5,NOTE_A4,NOTE_F4,NOTE_G4,NOTE_A4,NOTE_C5,NOTE_A4,NOTE_G4,NOTE_A4,NOTE_C5,NOTE_A4,NOTE_G4,NOTE_A4,NOTE_F3,NOTE_G3,NOTE_A3,NOTE_A3,NOTE_B3,NOTE_C4,NOTE_A4,NOTE_F4,NOTE_E4,NOTE_F4,NOTE_A4,NOTE_F4,NOTE_E4,NOTE_F4,NOTE_C4,NOTE_D4,NOTE_E4,NOTE_F4,NOTE_E4,NOTE_F4,NOTE_G4,NOTE_A4,NOTE_C5,NOTE_A4,NOTE_G4,NOTE_A4,NOTE_C5,NOTE_A4,NOTE_G4,NOTE_A4,NOTE_F4,NOTE_C5,NOTE_D5,NOTE_C5,NOTE_B4,NOTE_C5,NOTE_D5,NOTE_C5,NOTE_B4,NOTE_A4,NOTE_G4,NOTE_F4,NOTE_E4,NOTE_F4,NOTE_G4,NOTE_B4,NOTE_A4,NOTE_B4,NOTE_C5,NOTE_B4,NOTE_A4,NOTE_B4,NOTE_C5,NOTE_B4,NOTE_A4,NOTE_G4,NOTE_F4,NOTE_E4,NOTE_D4,NOTE_E4,NOTE_F4,NOTE_A4,NOTE_G4,NOTE_A4,NOTE_B4,NOTE_B4,NOTE_G4,NOTE_F4,NOTE_G4,NOTE_A4,NOTE_A4,NOTE_B4,NOTE_A4,NOTE_B4,NOTE_C5,NOTE_E4,NOTE_F4,NOTE_G4,NOTE_E4,NOTE_F4,NOTE_F4,NOTE_F4,NOTE_E5,NOTE_E5,NOTE_D5,NOTE_E5,NOTE_E5,NOTE_D5,NOTE_E5,NOTE_C5,NOTE_A4,NOTE_B4,NOTE_C5,NOTE_A4,NOTE_F4,NOTE_G4,NOTE_A4,NOTE_F4,NOTE_C4,NOTE_D4,NOTE_E4,NOTE_C4,NOTE_A3,NOTE_C4,NOTE_D4,NOTE_B3,NOTE_D4,NOTE_C5,NOTE_C5,NOTE_B4,NOTE_C5,NOTE_C5,NOTE_B4,NOTE_C5,NOTE_A4,NOTE_FS4,NOTE_G4,NOTE_A4,NOTE_FS4,NOTE_D4,NOTE_E4,NOTE_FS4,NOTE_D4,NOTE_A3,NOTE_B3,NOTE_C4,NOTE_A3,NOTE_FS3,NOTE_A3,NOTE_B3,NOTE_G3,NOTE_G4,NOTE_F5,NOTE_F5,NOTE_E5,NOTE_F5,NOTE_F5,NOTE_E5,NOTE_F5,NOTE_D5,NOTE_B4,NOTE_C5,NOTE_D5,NOTE_B4,NOTE_G4,NOTE_A4,NOTE_B4,NOTE_G4,NOTE_D4,NOTE_E4,NOTE_F4,NOTE_D4,NOTE_B3,NOTE_D4,NOTE_E4,NOTE_G4,NOTE_C5,NOTE_C5,NOTE_G4,NOTE_E4,NOTE_C4,NOTE_G4,NOTE_F4,NOTE_G4,NOTE_G4,NOTE_E4,NOTE_C4,NOTE_G3,NOTE_C4,NOTE_B3,NOTE_C4,NOTE_C4,NOTE_G3,NOTE_E4,NOTE_E4,NOTE_C4,NOTE_G4,NOTE_G4,NOTE_E4,NOTE_C5,NOTE_C5,NOTE_G4,NOTE_E5,NOTE_B4,NOTE_C5,NOTE_G4,NOTE_E4,NOTE_B3,NOTE_C4,NOTE_G3,NOTE_E3,NOTE_G3,NOTE_C4,NOTE_B3,NOTE_E4,NOTE_D4,NOTE_G4,NOTE_F4,NOTE_E4,NOTE_G4,NOTE_C5,NOTE_B4,NOTE_A4,NOTE_G4,NOTE_F4,NOTE_E4,NOTE_A4,NOTE_G4,NOTE_F4,NOTE_E4,NOTE_D4,NOTE_C4,NOTE_B3,NOTE_D4,NOTE_F4,NOTE_F4,NOTE_B4,NOTE_D5,NOTE_G4,NOTE_B4,NOTE_D4,NOTE_F4,NOTE_F4,NOTE_B3,NOTE_D4,NOTE_G3,NOTE_B3,NOTE_D3,NOTE_F3,NOTE_F3,NOTE_G3,NOTE_B3,NOTE_G3,NOTE_D4,NOTE_B3,NOTE_G4,NOTE_D4,NOTE_B4,NOTE_G4,NOTE_D5,NOTE_B4,NOTE_E5,NOTE_B4,NOTE_C5,NOTE_D5,NOTE_B4,NOTE_C5,NOTE_C5,NOTE_C4,NOTE_B4,NOTE_B4,NOTE_A4,NOTE_B4,NOTE_B4,NOTE_A4,NOTE_B4,NOTE_G4,NOTE_E4,NOTE_F4,NOTE_G4,NOTE_E4,NOTE_C4,NOTE_D4,NOTE_E4,NOTE_C4,NOTE_G3,NOTE_A3,NOTE_B3,NOTE_G3,NOTE_E3,NOTE_G3,NOTE_A3,NOTE_F3,NOTE_A3,NOTE_G4,NOTE_G4,NOTE_F4,NOTE_G4,NOTE_G4,NOTE_F4,NOTE_G4,NOTE_E4,NOTE_CS4,NOTE_D4,NOTE_E4,NOTE_CS4,NOTE_A3,NOTE_B3,NOTE_CS4,NOTE_A3,NOTE_E3,NOTE_F3,NOTE_G3,NOTE_E3,NOTE_CS3,NOTE_E3,NOTE_F3,NOTE_D3,NOTE_A3,NOTE_D4,NOTE_D4,NOTE_CS4,NOTE_D4,NOTE_D4,NOTE_CS4,NOTE_D4,NOTE_A3,NOTE_F3,NOTE_G3,NOTE_A3,NOTE_F3,NOTE_D3,NOTE_E3,NOTE_F3,NOTE_A3,NOTE_F3,NOTE_E3,NOTE_F3,NOTE_A3,NOTE_F3,NOTE_E3,NOTE_F3,NOTE_D3,NOTE_E3,NOTE_F3,NOTE_F3,NOTE_G3,NOTE_A3,NOTE_F4,NOTE_D4,NOTE_CS4,NOTE_D4,NOTE_F4,NOTE_D4,NOTE_CS4,NOTE_D4,NOTE_A3,NOTE_B3,NOTE_CS4,NOTE_D4,NOTE_CS4,NOTE_D4,NOTE_E4,NOTE_F4,NOTE_A4,NOTE_F4,NOTE_E4,NOTE_F4,NOTE_A4,NOTE_F4,NOTE_E4,NOTE_F4,NOTE_D4,NOTE_E4,NOTE_F4,NOTE_F4,NOTE_G4,NOTE_A4,NOTE_F5,NOTE_D5,NOTE_CS5,NOTE_D5,NOTE_F5,NOTE_D5,NOTE_CS5,NOTE_D5,NOTE_D4,NOTE_B4,NOTE_C5,NOTE_B4,NOTE_A4,NOTE_B4,NOTE_C5,NOTE_B4,NOTE_A4,NOTE_G4,NOTE_F4,NOTE_E4,NOTE_D4,NOTE_C4,NOTE_B3,NOTE_D5,NOTE_E5,NOTE_D5,NOTE_C5,NOTE_D5,NOTE_E5,NOTE_D5,NOTE_C5,NOTE_B4,NOTE_A4,NOTE_G4,NOTE_FS4,NOTE_E4,NOTE_D4,NOTE_FS4,NOTE_G4,NOTE_F4,NOTE_E4,NOTE_D4,NOTE_C4,NOTE_B3,NOTE_A3,NOTE_G3,NOTE_FS3,NOTE_G3,NOTE_A3,NOTE_D3,NOTE_FS4,NOTE_G4,NOTE_G4,NOTE_FS4,NOTE_G4,NOTE_G4,NOTE_FS4,NOTE_G4,NOTE_D4,NOTE_B3,NOTE_C4,NOTE_D4,NOTE_B3,NOTE_G3,NOTE_A3,NOTE_B3,NOTE_D4,NOTE_B3,NOTE_A3,NOTE_B3,NOTE_D4,NOTE_B3,NOTE_A3,NOTE_B3,NOTE_G3,NOTE_A3,NOTE_B3,NOTE_B3,NOTE_C4,NOTE_D4,NOTE_B4,NOTE_G4,NOTE_FS4,NOTE_G4,NOTE_B4,NOTE_G4,NOTE_F4,NOTE_E4,NOTE_E4,NOTE_A4,NOTE_C5,NOTE_A4,NOTE_G4,NOTE_A4,NOTE_C5,NOTE_A4,NOTE_G4,NOTE_FS4,NOTE_A4,NOTE_D5,NOTE_C5,NOTE_B4,NOTE_C5,NOTE_D5,NOTE_C5,NOTE_B4,NOTE_A4,NOTE_G4,NOTE_FS4,NOTE_E4,NOTE_FS4,NOTE_G4,NOTE_B4,NOTE_A4,NOTE_B4,NOTE_C5,NOTE_B4,NOTE_A4,NOTE_B4,NOTE_C5,NOTE_B4,NOTE_A4,NOTE_G4,NOTE_FS4,NOTE_E4,NOTE_D4,NOTE_E4,NOTE_FS4,NOTE_A4,NOTE_G4,NOTE_A4,NOTE_B4,NOTE_A4,NOTE_G4,NOTE_A4,NOTE_B4,NOTE_A4,NOTE_G4,NOTE_F4,NOTE_E4,NOTE_G4,NOTE_FS4,NOTE_G4,NOTE_A4,NOTE_A4,NOTE_D4,NOTE_G4,NOTE_A4,NOTE_FS4,NOTE_G4,NOTE_G4,NOTE_FS4,NOTE_G4,NOTE_G4,NOTE_D4,NOTE_B3,NOTE_G3,NOTE_D4,NOTE_C4,NOTE_D4,NOTE_D4,NOTE_B3,NOTE_G3,NOTE_D3,NOTE_G3,NOTE_FS3,NOTE_G3,NOTE_G3,NOTE_D3,NOTE_B3,NOTE_B3,NOTE_G3,NOTE_D4,NOTE_D4,NOTE_B3,NOTE_G4,};
int durations[] = {64,64,125,64,64,64,64,64,64,125,64,64,64,64,64,64,125,64,64,125,64,64,125,64,64,125,64,64,64,64,64,64,64,64,64,64,64,64,64,64,64,64,64,64,64,64,64,64,64,64,64,64,64,64,64,64,64,64,64,64,64,64,64,64,64,64,64,64,125,64,64,64,64,64,64,125,64,64,64,64,64,64,125,64,64,125,64,64,125,64,64,125,64,64,64,64,64,64,64,64,64,64,64,64,64,64,64,64,64,64,125,64,64,125,64,64,125,64,64,125,64,64,64,64,64,64,64,64,64,64,125,64,64,64,64,64,64,125,64,64,64,64,64,64,125,64,64,64,64,64,64,64,64,64,64,64,64,64,64,125,64,64,64,64,64,64,125,64,64,64,64,64,64,125,64,64,64,64,64,64,64,64,64,64,64,64,64,64,125,64,64,64,64,64,64,125,64,64,64,64,64,64,125,64,64,125,64,64,125,64,64,125,64,64,64,64,64,64,64,64,64,64,64,64,64,64,64,64,250,125,125,64,64,125,64,64,64,64,64,64,64,64,64,64,64,64,64,64,64,64,64,64,125,64,64,125,64,64,64,64,64,64,64,64,64,64,64,64,64,64,64,64,64,64,64,64,64,64,64,64,64,64,125,125,125,64,64,64,64,64,64,64,64,64,64,64,64,64,64,64,64,64,64,64,64,64,64,64,64,64,64,64,64,64,64,64,64,250,64,64,64,64,250,64,64,64,64,125,64,125,64,64,64,64,125,64,64,64,64,64,64,125,64,64,64,64,64,64,125,64,64,125,64,64,125,64,64,125,64,64,64,64,64,64,125,64,64,64,64,64,64,125,64,64,64,64,64,64,64,64,125,64,64,125,64,64,64,64,64,64,64,64,64,64,64,64,64,64,64,64,64,64,125,64,64,125,64,64,64,64,64,64,64,64,64,64,250,125,64,64,64,64,64,64,64,64,250,125,125,64,64,125,64,64,64,64,64,64,64,64,64,64,64,64,64,64,64,64,64,64,125,64,64,125,64,64,64,64,64,64,64,64,64,64,64,64,64,64,64,64,64,64,64,64,64,64,64,64,64,64,125,125,125,64,64,64,64,64,64,64,64,64,64,64,64,64,64,64,64,64,64,64,64,64,64,64,64,64,64,64,64,64,64,64,64,250,64,64,64,64,250,64,64,64,64,64,64,64,64,125,64,250,125,125,64,64,125,64,64,64,64,64,64,64,64,64,64,64,64,64,64,64,64,64,64,125,125,125,125,64,64,125,64,64,64,64,64,64,64,64,64,64,64,64,64,64,64,64,64,64,125,125,125,125,64,64,125,64,64,64,64,64,64,64,64,64,64,64,64,64,64,64,64,64,64,64,64,125,64,64,64,64,64,64,125,64,64,64,64,64,64,125,64,64,125,64,64,125,64,64,125,64,64,64,64,64,64,64,64,64,64,64,64,64,64,64,64,64,64,64,64,64,64,64,64,64,64,64,64,64,64,64,64,64,64,125,64,64,64,64,64,64,125,64,64,64,64,64,64,125,64,64,64,64,64,64,64,64,64,64,64,64,64,64,64,64,125,64,250,125,125,64,64,125,64,64,64,64,64,64,64,64,64,64,64,64,64,64,64,64,64,64,125,125,125,125,64,64,125,64,64,64,64,64,64,64,64,64,64,64,64,64,64,64,64,64,64,125,125,125,125,64,64,125,64,64,64,64,64,64,64,64,64,64,64,64,64,64,64,64,64,64,125,64,64,125,64,64,64,64,64,64,64,64,64,64,64,64,64,64,64,64,64,64,64,64,64,64,64,64,64,64,125,64,64,125,64,64,64,64,64,64,64,64,64,64,125,125,125,64,64,64,64,64,64,64,64,64,64,64,64,125,125,64,64,64,64,64,64,64,64,64,64,64,64,125,125,64,64,64,64,64,64,64,64,125,64,64,125,125,125,64,64,125,64,64,64,64,64,64,64,64,64,64,64,64,64,64,64,64,64,64,125,64,64,125,64,64,64,64,64,64,64,64,64,64,250,125,64,64,64,64,64,64,64,64,250,125,64,64,64,64,64,64,64,64,64,64,64,64,64,64,64,64,64,64,64,64,64,64,64,64,64,64,64,64,64,64,64,64,64,64,64,64,64,64,64,64,64,64,64,64,250,64,64,64,64,125,64,64,64,125,64,64,64,64,64,64,125,64,64,64,64,64,64,125,64,64,125,64,64,125,64,64,125,};
int melody_size = 985;
float pause_mult = 1.0;


void setup() {
}

void loop() {
  for (int thisNote = 0; thisNote < melody_size + 1; thisNote++) {

    int noteDuration = durations[thisNote];
    tone(8, notes[thisNote],noteDuration);

    int pauseBetweenNotes = noteDuration * pause_mult;
    delay(pauseBetweenNotes);
    noTone(8);
  }

  noTone(8);
  
  delay (100);
}